<?xml version="1.0" encoding="UTF-8" standalone="no"?>
<!-- Created with Inkscape (http://www.inkscape.org/) -->

<svg
   xmlns:dc="http://purl.org/dc/elements/1.1/"
   xmlns:cc="http://creativecommons.org/ns#"
   xmlns:rdf="http://www.w3.org/1999/02/22-rdf-syntax-ns#"
   xmlns:svg="http://www.w3.org/2000/svg"
   xmlns="http://www.w3.org/2000/svg"
   xmlns:sodipodi="http://sodipodi.sourceforge.net/DTD/sodipodi-0.dtd"
   xmlns:inkscape="http://www.inkscape.org/namespaces/inkscape"
   width="36.843266mm"
   height="35.725674mm"
   viewBox="0 0 130.547 126.58703"
   id="svg2"
   version="1.1"
   inkscape:version="0.91 r13725"
   sodipodi:docname="paccoon_black.svg"
   inkscape:export-filename="C:\Users\Dominika\Desktop\Projekty\Logo szop\szop logo.png"
   inkscape:export-xdpi="131"
   inkscape:export-ydpi="131">
  <title
     id="title4156">Paccoon</title>
  <defs
     id="defs4" />
  <sodipodi:namedview
     id="base"
     pagecolor="#ffffff"
     bordercolor="#666666"
     borderopacity="1.0"
     inkscape:pageopacity="0.0"
     inkscape:pageshadow="2"
     inkscape:zoom="1.979899"
     inkscape:cx="-146.81667"
     inkscape:cy="14.090048"
     inkscape:document-units="px"
     inkscape:current-layer="layer1"
     showgrid="false"
     fit-margin-top="0"
     fit-margin-left="0"
     fit-margin-right="0"
     fit-margin-bottom="0"
     inkscape:window-width="2495"
     inkscape:window-height="1416"
     inkscape:window-x="65"
     inkscape:window-y="24"
     inkscape:window-maximized="1" />
  <metadata
     id="metadata7">
    <rdf:RDF>
      <cc:Work
         rdf:about="">
        <dc:format>image/svg+xml</dc:format>
        <dc:type
           rdf:resource="http://purl.org/dc/dcmitype/StillImage" />
        <dc:title>Paccoon</dc:title>
        <dc:creator>
          <cc:Agent>
            <dc:title>Dominika Pietrzak</dc:title>
          </cc:Agent>
        </dc:creator>
        <dc:publisher>
          <cc:Agent>
            <dc:title>Tadeusz Lewandowski</dc:title>
          </cc:Agent>
        </dc:publisher>
        <dc:language>Polish</dc:language>
        <dc:subject>
          <rdf:Bag>
            <rdf:li>Programming</rdf:li>
          </rdf:Bag>
        </dc:subject>
        <dc:date>01.03.2017</dc:date>
        <dc:rights>
          <cc:Agent>
            <dc:title>All rights to Dominika Pietrzak</dc:title>
          </cc:Agent>
        </dc:rights>
        <cc:license
           rdf:resource="http://creativecommons.org/licenses/by-nc-sa/3.0/" />
      </cc:Work>
      <cc:License
         rdf:about="http://creativecommons.org/licenses/by-nc-sa/3.0/">
        <cc:permits
           rdf:resource="http://creativecommons.org/ns#Reproduction" />
        <cc:permits
           rdf:resource="http://creativecommons.org/ns#Distribution" />
        <cc:requires
           rdf:resource="http://creativecommons.org/ns#Notice" />
        <cc:requires
           rdf:resource="http://creativecommons.org/ns#Attribution" />
        <cc:prohibits
           rdf:resource="http://creativecommons.org/ns#CommercialUse" />
        <cc:permits
           rdf:resource="http://creativecommons.org/ns#DerivativeWorks" />
        <cc:requires
           rdf:resource="http://creativecommons.org/ns#ShareAlike" />
      </cc:License>
    </rdf:RDF>
  </metadata>
  <g
     inkscape:label="Layer 1"
     inkscape:groupmode="layer"
     id="layer1"
     transform="translate(-260.59588,-115.38367)">
    <g
       id="g4176"
       transform="translate(-5.5591852,-1.0101525)">
      <g
         transform="translate(-163.57143,-452.70074)"
         id="g4454">
        <path
           style="fill:none;fill-rule:evenodd;stroke:#000000;stroke-width:1px;stroke-linecap:butt;stroke-linejoin:miter;stroke-opacity:1"
           d="M 525,617.3622 Z"
           id="path4322"
           inkscape:connector-curvature="0" />
        <path
           style="fill:none;fill-rule:evenodd;stroke:#000000;stroke-width:5;stroke-linecap:butt;stroke-linejoin:miter;stroke-miterlimit:4;stroke-dasharray:none;stroke-opacity:1"
           d="m 495,647.3622 -30,-30 15,-15 15,10 15,-10 15,15 z"
           id="path4345"
           inkscape:connector-curvature="0" />
        <path
           style="fill:none;fill-rule:evenodd;stroke:#000000;stroke-width:2;stroke-linecap:butt;stroke-linejoin:miter;stroke-miterlimit:4;stroke-dasharray:none;stroke-opacity:1"
           d="m 479.59952,651.79585 15,0 15,0 0,0"
           id="path4347"
           inkscape:connector-curvature="0" />
        <path
           style="fill:none;fill-rule:evenodd;stroke:#000000;stroke-width:1px;stroke-linecap:butt;stroke-linejoin:miter;stroke-opacity:1"
           d="m 484.59953,659.48711 0,0 10,-5 10,5"
           id="path4349"
           inkscape:connector-curvature="0" />
        <path
           style="fill:none;fill-rule:evenodd;stroke:#000000;stroke-width:1px;stroke-linecap:butt;stroke-linejoin:miter;stroke-opacity:1"
           d="M 470.35714,583.07649 Z"
           id="path4360"
           inkscape:connector-curvature="0" />
        <path
           style="fill:none;fill-rule:evenodd;stroke:#000000;stroke-width:5;stroke-linecap:butt;stroke-linejoin:miter;stroke-miterlimit:4;stroke-dasharray:none;stroke-opacity:1"
           d="m 495,642.3622 -60,-25 60,-40 60,40 z"
           id="path4372"
           inkscape:connector-curvature="0" />
        <path
           style="fill:none;fill-rule:evenodd;stroke:#000000;stroke-width:3.77582741;stroke-linecap:butt;stroke-linejoin:miter;stroke-miterlimit:4;stroke-dasharray:none;stroke-opacity:1"
           d="m 494.99999,646.80064 -23.18562,-22.13644 11.5928,-11.06823 11.59282,7.37883 11.59281,-7.37883 11.59282,11.06823 z"
           id="path4345-7"
           inkscape:connector-curvature="0" />
        <path
           style="fill:none;fill-rule:evenodd;stroke:#000000;stroke-width:3;stroke-linecap:butt;stroke-linejoin:miter;stroke-miterlimit:4;stroke-dasharray:none;stroke-opacity:1"
           d="m 478.88687,587.87471 -20,-15 6.32397,24.15573"
           id="path4374-5"
           inkscape:connector-curvature="0"
           sodipodi:nodetypes="ccc" />
        <path
           style="fill:none;fill-rule:evenodd;stroke:#000000;stroke-width:2;stroke-linecap:butt;stroke-linejoin:miter;stroke-miterlimit:4;stroke-dasharray:none;stroke-opacity:1"
           d="m 458.88687,572.87471 -5,30"
           id="path4378-6"
           inkscape:connector-curvature="0" />
        <path
           style="fill:none;fill-rule:evenodd;stroke:#000000;stroke-width:3;stroke-linecap:butt;stroke-linejoin:miter;stroke-miterlimit:4;stroke-dasharray:none;stroke-opacity:1"
           d="m 512.72905,588.589 20,-15 -6.32397,24.15573"
           id="path4374-5-8"
           inkscape:connector-curvature="0"
           sodipodi:nodetypes="ccc" />
        <path
           style="fill:none;fill-rule:evenodd;stroke:#000000;stroke-width:2;stroke-linecap:butt;stroke-linejoin:miter;stroke-miterlimit:4;stroke-dasharray:none;stroke-opacity:1"
           d="m 532.72905,573.589 5,30"
           id="path4378-6-4"
           inkscape:connector-curvature="0" />
      </g>
      <path
         inkscape:connector-curvature="0"
         id="path4509"
         d="m 307.07344,166.50361 -1.87204,-1.88461 5.77848,-5.78258 5.77848,-5.78257 7.31838,4.88065 7.31838,4.88066 7.35386,-4.90432 7.35385,-4.90431 5.8077,5.80769 5.8077,5.8077 -1.93062,1.93062 -1.93061,1.93061 -5.23901,-5.02353 c -2.88146,-2.76294 -5.34546,-4.992 -5.47556,-4.95346 -0.1301,0.0385 -2.75573,1.67558 -5.83473,3.63788 -3.079,1.9623 -5.72223,3.56911 -5.87384,3.5707 -0.15162,0.002 -2.79453,-1.60731 -5.87315,-3.5753 -3.07862,-1.96799 -5.70014,-3.60633 -5.8256,-3.64076 -0.12547,-0.0344 -2.14188,1.76219 -4.48092,3.99248 -2.33904,2.23029 -4.71538,4.46952 -5.28076,4.97606 l -1.02796,0.921 -1.87203,-1.88461 z"
         style="opacity:0.46799999;fill:#000000;fill-opacity:1;stroke:#000000;stroke-width:1.26269066;stroke-linecap:square;stroke-linejoin:round;stroke-miterlimit:4;stroke-dasharray:none;stroke-dashoffset:0;stroke-opacity:1" />
      <path
         inkscape:connector-curvature="0"
         id="path4511"
         d="m 307.07782,166.50802 -1.87779,-1.8904 5.80555,-5.80555 5.80554,-5.80554 7.32297,4.88371 7.32297,4.88372 7.32287,-4.88373 7.32287,-4.88374 5.80771,5.80772 5.80772,5.80771 -1.93911,1.93911 -1.9391,1.9391 -5.16116,-4.96888 c -2.83864,-2.73289 -5.28592,-4.96889 -5.4384,-4.96889 -0.15247,0 -2.75249,1.5712 -5.77782,3.49155 -3.02532,1.92035 -5.62843,3.56609 -5.78468,3.65719 -0.15625,0.0911 -2.87423,-1.48477 -6.03994,-3.50194 -3.16571,-2.01718 -5.90321,-3.6345 -6.08334,-3.59406 -0.18012,0.0404 -2.40815,2.06227 -4.95117,4.49295 -2.54302,2.43068 -4.85413,4.61538 -5.13579,4.8549 -0.4972,0.42278 -0.56683,0.38039 -2.3899,-1.45493 z"
         style="opacity:0.46799999;fill:#000000;fill-opacity:1;stroke:#000000;stroke-width:1.26269066;stroke-linecap:square;stroke-linejoin:round;stroke-miterlimit:4;stroke-dasharray:none;stroke-dashoffset:0;stroke-opacity:1" />
    </g>
    <g
       style="font-style:normal;font-weight:normal;font-size:22.5px;line-height:125%;font-family:sans-serif;text-align:center;letter-spacing:0px;word-spacing:0px;text-anchor:middle;fill:#000000;fill-opacity:1;stroke:none;stroke-width:1px;stroke-linecap:butt;stroke-linejoin:miter;stroke-opacity:1"
       id="text4525">
      <path
         d="m 267.94702,227.46631 q 0.12695,0.0159 0.28565,0.0317 0.17456,0.0159 0.47607,0.0159 1.71387,0 2.47559,-0.79346 0.76171,-0.80933 0.76171,-2.58667 0,-1.47583 -0.80932,-2.12647 -0.80933,-0.65063 -2.69776,-0.65063 l -0.49194,0 0,6.10962 z m -5.74463,13.91723 0,-24.43847 5.61768,0 q 3.11035,0 4.58618,0.26977 1.4917,0.26978 2.50732,0.90454 1.34888,0.8252 2.04712,2.45972 0.71411,1.61865 0.71411,3.87207 0,3.71338 -1.96777,5.64942 -1.9519,1.92016 -5.74463,1.92016 l -2.01538,0 0,9.36279 -5.74463,0 z"
         style="font-style:normal;font-variant:normal;font-weight:normal;font-stretch:condensed;font-size:32.5px;font-family:'Swis721 BlkCn BT';-inkscape-font-specification:'Swis721 BlkCn BT Condensed'"
         id="path4151" />
      <path
         d="m 284.2605,232.29053 3.28491,0 -1.63452,-10.66407 -1.65039,10.66407 z m -7.06177,9.09301 5.33203,-24.43847 6.79199,0 5.26856,24.43847 -5.71289,0 -0.71411,-4.68139 -4.49097,0 -0.71411,4.68139 -5.7605,0 z"
         style="font-style:normal;font-variant:normal;font-weight:normal;font-stretch:condensed;font-size:32.5px;font-family:'Swis721 BlkCn BT';-inkscape-font-specification:'Swis721 BlkCn BT Condensed'"
         id="path4153" />
      <path
         d="m 306.87402,231.92554 5.61768,0 q 0.0159,0.22217 0.0159,0.47607 0.0159,0.25391 0.0159,0.76172 0,4.4751 -1.96778,6.64917 -1.9519,2.1582 -5.99853,2.1582 -2.38037,0 -4.07837,-0.79345 -1.698,-0.79346 -2.74536,-2.39624 -0.72998,-1.14258 -1.04736,-3.17383 -0.31739,-2.03125 -0.31739,-6.44287 0,-4.41162 0.31739,-6.44287 0.31738,-2.03125 1.04736,-3.17383 1.03149,-1.58692 2.71362,-2.38037 1.68213,-0.80933 4.01489,-0.80933 4.0149,0 6.01441,2.23755 2.01538,2.22168 2.01538,6.66504 l 0,0.23804 -5.5542,-0.0159 q -0.0317,-2.49146 -0.57129,-3.49121 -0.53955,-1.01563 -1.80908,-1.01563 -1.38062,0 -1.88843,1.23779 -0.50781,1.22193 -0.50781,6.49048 l 0,0.46021 q 0,5.66528 0.50781,6.95068 0.50781,1.26953 1.88843,1.26953 1.2854,0 1.79321,-0.92041 0.52368,-0.93628 0.52368,-3.45947 l 0,-1.0791 z"
         style="font-style:normal;font-variant:normal;font-weight:normal;font-stretch:condensed;font-size:32.5px;font-family:'Swis721 BlkCn BT';-inkscape-font-specification:'Swis721 BlkCn BT Condensed'"
         id="path4155" />
      <path
         d="m 326.23437,231.92554 5.61768,0 q 0.0159,0.22217 0.0159,0.47607 0.0159,0.25391 0.0159,0.76172 0,4.4751 -1.96777,6.64917 -1.95191,2.1582 -5.99854,2.1582 -2.38037,0 -4.07837,-0.79345 -1.698,-0.79346 -2.74536,-2.39624 -0.72998,-1.14258 -1.04736,-3.17383 -0.31739,-2.03125 -0.31739,-6.44287 0,-4.41162 0.31739,-6.44287 0.31738,-2.03125 1.04736,-3.17383 1.03149,-1.58692 2.71362,-2.38037 1.68213,-0.80933 4.0149,-0.80933 4.01489,0 6.0144,2.23755 2.01538,2.22168 2.01538,6.66504 l 0,0.23804 -5.5542,-0.0159 q -0.0317,-2.49146 -0.57129,-3.49121 -0.53955,-1.01563 -1.80908,-1.01563 -1.38061,0 -1.88843,1.23779 -0.50781,1.22193 -0.50781,6.49048 l 0,0.46021 q 0,5.66528 0.50781,6.95068 0.50782,1.26953 1.88843,1.26953 1.2854,0 1.79321,-0.92041 0.52368,-0.93628 0.52368,-3.45947 l 0,-1.0791 z"
         style="font-style:normal;font-variant:normal;font-weight:normal;font-stretch:condensed;font-size:32.5px;font-family:'Swis721 BlkCn BT';-inkscape-font-specification:'Swis721 BlkCn BT Condensed'"
         id="path4157" />
      <path
         d="m 345.62646,231.37012 0,-4.41162 q 0,-4.0625 -0.52368,-5.01465 -0.50781,-0.96802 -1.85669,-0.96802 -1.31713,0 -1.82495,0.98389 -0.50781,0.98388 -0.50781,4.99878 l 0,4.41162 q 0,3.96728 0.50781,4.98291 0.50782,0.99975 1.85669,0.99975 1.33301,0 1.84082,-0.98388 0.50781,-0.98389 0.50781,-4.99878 z m -10.5371,-2.20581 q 0,-4.41162 0.31738,-6.44287 0.31738,-2.03125 1.04736,-3.17383 1.04736,-1.61865 2.74536,-2.39624 1.698,-0.79346 4.07837,-0.79346 2.39624,0 4.0625,0.79346 1.68213,0.77759 2.72949,2.39624 0.76172,1.15844 1.07911,3.18969 0.31738,2.03125 0.31738,6.42701 0,4.37988 -0.31738,6.427 -0.31739,2.03125 -1.07911,3.1897 -1.03149,1.60278 -2.72949,2.39624 -1.68213,0.79345 -4.0625,0.79345 -2.38037,0 -4.07837,-0.79345 -1.698,-0.79346 -2.74536,-2.39624 -0.72998,-1.14258 -1.04736,-3.17383 -0.31738,-2.03125 -0.31738,-6.44287 z"
         style="font-style:normal;font-variant:normal;font-weight:normal;font-stretch:condensed;font-size:32.5px;font-family:'Swis721 BlkCn BT';-inkscape-font-specification:'Swis721 BlkCn BT Condensed'"
         id="path4159" />
      <path
         d="m 364.98682,231.37012 0,-4.41162 q 0,-4.0625 -0.52369,-5.01465 -0.50781,-0.96802 -1.85668,-0.96802 -1.31714,0 -1.82496,0.98389 -0.50781,0.98388 -0.50781,4.99878 l 0,4.41162 q 0,3.96728 0.50781,4.98291 0.50782,0.99975 1.85669,0.99975 1.33301,0 1.84082,-0.98388 0.50782,-0.98389 0.50782,-4.99878 z m -10.53711,-2.20581 q 0,-4.41162 0.31738,-6.44287 0.31738,-2.03125 1.04736,-3.17383 1.04737,-1.61865 2.74536,-2.39624 1.698,-0.79346 4.07837,-0.79346 2.39624,0 4.0625,0.79346 1.68213,0.77759 2.7295,2.39624 0.76171,1.15844 1.0791,3.18969 0.31738,2.03125 0.31738,6.42701 0,4.37988 -0.31738,6.427 -0.31739,2.03125 -1.0791,3.1897 -1.0315,1.60278 -2.7295,2.39624 -1.68213,0.79345 -4.0625,0.79345 -2.38037,0 -4.07837,-0.79345 -1.69799,-0.79346 -2.74536,-2.39624 -0.72998,-1.14258 -1.04736,-3.17383 -0.31738,-2.03125 -0.31738,-6.44287 z"
         style="font-style:normal;font-variant:normal;font-weight:normal;font-stretch:condensed;font-size:32.5px;font-family:'Swis721 BlkCn BT';-inkscape-font-specification:'Swis721 BlkCn BT Condensed'"
         id="path4161" />
      <path
         d="m 374.302,241.38354 0,-24.43847 5.95093,0 4.74487,15.07568 q -0.28564,-3.80859 -0.42846,-6.56982 -0.12696,-2.76123 -0.12696,-4.66553 l 0,-3.84033 5.094,0 0,24.43847 -5.9668,0 -4.77661,-15.53588 q 0.31738,3.031 0.47607,5.88745 0.17456,2.84057 0.17456,5.52246 l 0,4.12597 -5.1416,0 z"
         style="font-style:normal;font-variant:normal;font-weight:normal;font-stretch:condensed;font-size:32.5px;font-family:'Swis721 BlkCn BT';-inkscape-font-specification:'Swis721 BlkCn BT Condensed'"
         id="path4163" />
    </g>
  </g>
</svg>
